<?xml version="1.0" encoding="iso-8859-1"?>
<!-- Uploaded to: SVG Repo, www.svgrepo.com, Generator: SVG Repo Mixer Tools -->
<svg fill="#000000" height="800px" width="800px" version="1.1" id="Layer_1" xmlns="http://www.w3.org/2000/svg" xmlns:xlink="http://www.w3.org/1999/xlink" 
	 viewBox="0 0 499.992 499.992" xml:space="preserve">
<g>
	<g>
		<path d="M355.996,219.696c-6.332-5.2-13.256-10.42-19.956-15.472c-30.88-23.276-62.804-47.344-62.804-85.368
			c0-0.672-0.168-1.304-0.468-1.86c-0.948-11.732-10.796-20.988-22.764-20.988c-12.208,0-22.212,9.628-22.816,21.692
			c-0.112,0.36-0.168,0.748-0.168,1.148c0,32.84-26.512,54.212-52.16,74.876c-7.736,6.24-15.74,12.684-22.536,19.076
			c-39.748,30.624-62.544,76.896-62.54,126.96c0,42.792,16.664,83.036,46.924,113.296c30.26,30.26,70.496,46.936,113.292,46.936
			c0,0,0.004,0,0.008,0c42.788,0,83.016-16.676,113.276-46.936c30.256-30.26,46.924-70.5,46.924-113.292
			C410.204,293.94,390.484,250.208,355.996,219.696z"/>
	</g>
</g>
<g>
	<g>
		<path d="M250,0c-17.204,0-31.192,13.992-31.192,31.188c0,17.192,13.988,31.188,31.192,31.188
			c17.196,0,31.184-13.996,31.184-31.188C281.184,13.992,267.196,0,250,0z"/>
	</g>
</g>
</svg>