<?xml version="1.0" encoding="utf-8"?>
<!-- Generator: Adobe Illustrator 22.0.0, SVG Export Plug-In . SVG Version: 6.00 Build 0)  -->
<svg version="1.1" id="Layer_1" xmlns="http://www.w3.org/2000/svg" xmlns:xlink="http://www.w3.org/1999/xlink" x="0px" y="0px"
	 viewBox="0 0 1920 1080" style="enable-background:new 0 0 1920 1080;" xml:space="preserve">
<style type="text/css">
	.st0{display:none;fill:#FFFFFF;}
	.st1{fill:#FFFFFF;}
</style>
<g>
	<g>
		<path class="st0" d="M369.2,21.6c414.9,0,829.9,0,1244.8,0c0,343.7,0,687.3,0,1031c-414.9,0-829.9,0-1244.8,0
			C369.2,708.9,369.2,365.3,369.2,21.6z M1450.4,146.1c-0.6-0.5-1.2-1.1-1.8-1.6c-18.2,7.4-36.4,14.8-54.7,22.3
			c-46.5,19-92.9,38.1-139.4,57c-54.6,22.2-109.2,44.2-163.7,66.5c-65,26.5-129.9,53.3-194.8,79.8c-59.9,24.5-119.8,48.8-179.6,73.2
			c-64.5,26.3-129.1,52.5-193.5,78.9c-22.8,9.4-46.6,17.1-66.3,32.7c-36.8,29.2-46.9,63.8-19.9,104.8c8.1,12.3,19.3,22.9,29.9,33.4
			c44.2,43.8,88.8,87.2,133.1,130.8c4.1,4,8.2,5.8,13.9,5.6c17.4-0.3,34.8,0,52.2-0.1c2.9,0,5.8-0.5,10.1-0.9
			c-2.4-2.6-3.3-3.9-4.4-4.9C611.1,769.3,550.8,715,490.7,660.4c-5.7-5.2-10.6-11.8-14.3-18.6c-8.5-15.5-6-31.2,8.3-41.4
			c12.7-9.1,26.8-16.9,41.3-22.7c26.9-10.7,54.5-19.5,81.8-29.1c45.8-16.2,91.6-32.4,137.5-48.6c42.6-15.1,85.3-30.1,127.9-45.1
			c42.8-15.1,85.7-30.2,128.6-45.2c39.7-14,79.4-27.9,119-41.9c36.2-12.7,72.4-25.4,108.5-38.3c46-16.5,92.3-32.4,137.9-50.2
			c25.1-9.8,44-28,54.3-53.4c8.7-21.4,16.3-43.3,24.3-65C1447.5,156,1448.9,151,1450.4,146.1z M1383.2,321.2
			c-0.7-0.7-1.4-1.5-2.1-2.2c-8.7,2.6-17.4,5.1-26,8c-40.2,13.2-80.3,26.5-120.5,39.7c-30.7,10.1-61.5,20.1-92.2,30.2
			c-28.5,9.4-56.9,18.9-85.4,28.2c-36.7,12-73.6,23.6-110.3,35.6c-49.8,16.2-99.5,32.6-149.2,48.8c-36.2,11.8-72.5,23.4-108.8,35.2
			c-40,13-80.1,25.7-119.9,39.3c-22.1,7.5-43.9,16-65.4,25.2c-10.8,4.6-14.2,16.7-7.9,26.6c4.4,7,10.6,13,16.7,18.7
			c2.1,2,6.7,2.8,9.6,2.1c25.8-6.4,51.4-13.2,77.1-19.9c36.7-9.5,73.4-18.9,110-28.6c1.9-0.5,4.4-3.7,4.5-5.7
			c0.4-10,3-12.9,12.9-15.4c30.6-7.6,61.1-15.6,91.6-23.5c29.5-7.7,59.1-15.4,88.6-23.1c24.9-6.5,49.9-13,74.8-19.7
			c28.9-7.8,57.8-15.8,86.7-23.6c29.2-7.8,58.5-15.4,87.7-23.1c37.4-9.9,74.8-19.7,112.1-30.2c11.7-3.3,23.9-7,34.1-13.3
			c27.4-16.9,45.2-43,61-70.3C1370.2,347.5,1376.5,334.2,1383.2,321.2z M527.5,669.3c3.1,3.5,4.5,5.5,6.4,7.1
			c10.1,8.9,20.4,17.5,30.2,26.7c4.5,4.2,9,5.8,15,4.6c14.8-2.8,29.5-5.4,44.3-7.9c32.7-5.6,65.4-11.1,98.2-16.6
			c26.5-4.5,53-8.7,79.4-13.5c1.9-0.3,4.8-3.5,4.8-5.4c0-11,1.6-13.6,12.5-15.6c19.9-3.7,39.9-7,59.8-10.9
			c32.6-6.4,65.1-13.1,97.6-19.7c28.4-5.8,56.7-11.6,85.1-17.3s56.8-11.4,85.1-17.1c20.8-4.2,41.9-6.6,61.8-15.5
			c42.1-18.9,69.9-51,89.3-91.4c-0.3-0.8-0.7-1.6-1-2.3C1040.6,539.3,785,604,527.5,669.3z M1194.1,613.7c-0.6-1-1.3-2-1.9-2.9
			c-203,36.1-405.9,72.2-608.9,108.4c-0.1,0.9-0.2,1.8-0.3,2.8c16.3,15.2,32.6,30.5,49.1,45.5c1.4,1.3,4.3,1.6,6.4,1.3
			c22.8-2.5,45.5-5.3,68.3-7.9c31.7-3.6,63.4-7.1,95.1-10.7c33-3.7,66-7.5,99-11.3c4.3-0.5,8.6-1.3,12.9-1.9
			c-2.3-13.4,1.4-18.2,14.1-19.8c8.6-1.1,17.3-1.7,25.9-2.8c40.5-5.1,81.1-9.5,121.5-15.5c41.4-6.2,74.7-27.4,101.3-59.3
			C1183.2,631.6,1188.3,622.4,1194.1,613.7z M1069.7,829.5c0.1-0.7,0.2-1.3,0.3-2c-1.3-1-2.6-2.2-4-3.1
			c-41.9-24.8-83.9-49.6-126-74.1c-2.7-1.6-6.5-2.2-9.7-1.9c-22.3,2-44.6,4.3-66.9,6.6c-21.5,2.3-43,4.8-64.4,7.2
			c-25.4,2.8-50.9,5.4-76.3,8.1c-22,2.4-44,4.7-66,7.2c-2.4,0.3-4.7,1.2-7.7,1.9c1.3,2.2,1.8,3.5,2.7,4.3
			c14.7,14.4,29.4,28.8,44.4,42.8c2.2,2,6.2,2.9,9.3,2.9c118.2,0.1,236.4,0.1,354.7,0.1C1063.2,829.5,1066.4,829.5,1069.7,829.5z
			 M637.5,857.6c-31.4,0-62.6,0-94.5,0c0,4.9,0.4,9.1-0.1,13.2c-0.8,7.2,1.8,9.8,9.3,9.6c17.2-0.4,14.5-0.9,14.7,14.9
			c0,0.8-0.1,1.6,0,2.4c0.7,5-1.9,6.4-6.4,6.4c-19.3-0.1-38.5,0-57.8-0.1c-2,0-5.5-0.9-5.6-1.6c-0.5-6.5-1-13.1,0-19.5
			c0.2-1.3,6.3-2.4,9.7-2.5c13.2-0.4,13.2-0.3,13.1-13.7c0-0.5,0-1.1,0-1.6c0.8-6.1-1.7-8.3-8-8.2c-26.9,0.3-53.8,0.1-80.7,0.2
			c-2,0-4.1,0.3-6.5,0.5c-0.2,2.5-0.5,4.5-0.5,6.6c-0.3,15.4-0.2,15.7,14.9,16c5.9,0.1,6.9,2.8,6.9,7.9c-0.2,18.2-0.3,36.4,0.1,54.6
			c0.2,6.8-1.8,9.4-8.9,9.2c-14-0.4-13-1.6-13,13.3c0,0.5,0.1,1.1,0,1.6c-1.1,6.8,1.4,9.1,8.6,9c24-0.5,48-0.2,72-0.2
			c17.1,0,14.7,1.6,15.1-15.4c0.1-6-1.7-9.1-8.1-8.4c-1.3,0.2-2.6,0-4,0c-12-0.1-12-0.1-11.9-12.4c0-0.5,0.1-1.1,0-1.6
			c-0.8-6.3,1.6-8.9,8.3-8.7c17.9,0.4,35.9,0.4,53.8-0.1c7.1-0.2,9.7,2.2,8.7,9c-0.3,1.8-0.3,3.7,0,5.5c0.9,6.3-1.8,8.3-8,8.3
			c-15.6,0-15.6,0.3-15.4,16c0,0.5,0.1,1.1,0,1.6c-0.6,4.5,1.4,6.2,5.8,6.2c27.7,0,55.4,0.1,83.1-0.2c1.9,0,5.4-3.5,5.5-5.4
			c0.3-19.2,2.5-19.2-14.5-18.1c-6.1,0.4-8.4-2.5-8.3-8.5c0.2-18.5,0.2-36.9,0-55.4c0-5.4,2.1-7.4,7.5-7.6
			c16.1-0.7,16.1-0.8,15.5-17.3C638.1,861.3,637.8,859.7,637.5,857.6z M1030.4,975.3c0-3.8,0-6.4,0-9c0-25.6,0.2-51.2-0.1-76.8
			c-0.1-6.5,1.1-9.4,8.6-9.2c16.4,0.4,16.4,0,15.7-16.6c0-0.5,0.2-1.3-0.1-1.5c-1.7-1.8-3.5-4.9-5.2-5c-22.4-0.4-44.9-0.3-67.3-0.1
			c-1.7,0-4.6,2.6-4.9,4.3c-2.8,16.5-1.1,18.4,15.4,19c0.3,0,0.5,0,0.8,0c5.7-0.5,8,2,7.9,7.9c-0.3,15-0.1,30.1-0.2,45.1
			c0,1.8-0.8,3.5-1.5,6.7c-2.2-2.4-3.3-3.4-4.2-4.6c-19-24.3-37.9-48.6-57.1-72.8c-2.1-2.6-5.7-5.4-8.7-5.5
			c-28-0.4-55.9-0.4-83.9-0.1c-1.9,0-5.2,3.3-5.4,5.3c-1.8,17.1-1.6,17.3,14.9,17.6c5.4,0.1,7.5,1.7,7.4,7.3c-0.2,19-0.1,38,0.1,57
			c0.1,5.5-2.2,7.3-7.5,7.4c-15.5,0.2-15.5,0.4-15.1,16c0,0.8-0.3,1.9,0.1,2.3c1.6,1.9,3.4,5,5.2,5.1c21.6,0.3,43.3,0.3,64.9,0
			c1.7,0,4.5-2.7,4.8-4.4c2.7-17.1,1.3-18.6-15.9-19.2c-0.3,0-0.5,0-0.8,0c-5.3,0.4-7.6-1.7-7.3-7.4c0.4-8.7,0.2-17.4,0.2-26.1
			c0-7.7,0-15.5,0-23.2c3.8,1.5,5.8,3.5,7.5,5.7c18.2,23.2,36.3,46.5,54.6,69.7c1.7,2.1,4.3,4.9,6.5,5
			C982.9,975.4,1006.1,975.3,1030.4,975.3z M736.3,981.2c0.1,0.7,0.2,1.3,0.4,2c15.7-2.8,31.7-4.5,47.1-8.6
			c18.1-4.8,33.1-15.4,41.8-32.6c13.6-26.9,7.3-67.4-34.1-82.1c-35.7-12.6-72.1-12.3-107.7,0.7c-26.3,9.6-40.6,29.5-40.7,54.4
			c-0.1,26.2,13.7,47.9,39.9,57.5C700.2,978.9,718,981.6,736.3,981.2z M1139.1,975.4c0-0.2,0-0.4,0-0.5c21.4,0,42.9,1.5,64.1-0.3
			c32.6-2.8,53.5-12.7,56.4-49.3c1.7-21.6-3-41.6-21.8-55.5c-12.6-9.3-27.3-12.5-42.4-12.7c-38.8-0.5-77.6-0.2-116.3-0.2
			c-2.1,0-4.4-0.4-6.3,0.3c-1.6,0.6-3.5,2.4-3.9,3.9c-3.3,15-0.3,19.2,14.6,19c7.2-0.1,8.9,2.7,8.8,9.4c-0.4,16.9-0.2,33.8-0.1,50.6
			c0.1,11.4,0.1,11.4-11.2,11.5c-12.4,0.1-12.4,0.1-12.3,12.1c0,1.1,0.1,2.1,0,3.2c-0.8,6.6,2.2,8.7,8.7,8.6
			C1097.9,975.3,1118.5,975.4,1139.1,975.4z M1395.1,951.6c-5.2,0-9.7-0.4-14.1,0.2c-2.1,0.3-5.5,2.1-5.7,3.6
			c-0.7,5.4-0.6,11.1-0.1,16.5c0.1,1.3,3.3,3.3,5,3.3c30.6,0.2,61.2,0.2,91.8,0c1.9,0,4.9-2.2,5.3-3.9c3.7-15.7,0.5-19.7-15.2-19.6
			c-5.2,0-8.9-1-11.8-5.8c-16.4-27.6-33.3-54.9-49.6-82.6c-2.8-4.8-5.7-6.5-11.2-6.5c-25.3,0.3-50.6-0.1-75.9,0.2
			c-17.2,0.2-15.3-3.7-15.6,16.3c-0.1,5.2,2.3,7.1,7.1,7c5.7-0.1,11.3,0,18.6,0c-1.6,3.7-2.3,5.8-3.4,7.7
			c-10.1,18.5-20.4,36.8-30.1,55.4c-3.3,6.3-7.3,8.5-14.3,8.3c-17.6-0.6-14.6-0.4-15.2,14.5c-0.3,7.8,2.6,9.4,9.5,9.3
			c18.2-0.3,36.4,0,54.6-0.2c17.4-0.2,15.7,3.2,16-16.9c0.1-5.2-2.2-7.1-7.1-6.9c-4.5,0.1-9.1,0-14.6,0c2.9-9,5.4-14.5,14.8-14.1
			c15,0.7,30.1,0.2,45.1,0.2C1389,937.7,1391.8,939.9,1395.1,951.6z"/>
		<path d="M1450.4,146.1c-1.5,4.9-2.9,9.8-4.7,14.7c-8,21.7-15.6,43.6-24.3,65c-10.3,25.4-29.2,43.6-54.3,53.4
			c-45.6,17.7-91.8,33.7-137.9,50.2c-36.1,12.9-72.3,25.6-108.5,38.3c-39.7,14-79.4,27.9-119,41.9c-42.8,15.1-85.7,30.1-128.6,45.2
			c-42.6,15-85.3,30-127.9,45.1c-45.8,16.2-91.6,32.4-137.5,48.6c-27.3,9.6-54.9,18.4-81.8,29.1c-14.5,5.8-28.6,13.6-41.3,22.7
			c-14.4,10.2-16.9,25.9-8.3,41.4c3.7,6.8,8.6,13.4,14.3,18.6c60,54.6,120.4,109,180.6,163.4c1.1,1,2.1,2.3,4.4,4.9
			c-4.3,0.4-7.2,0.9-10.1,0.9c-17.4,0-34.8-0.3-52.2,0.1c-5.8,0.1-9.9-1.6-13.9-5.6c-44.3-43.7-88.9-87.1-133.1-130.8
			c-10.6-10.5-21.8-21-29.9-33.4c-27-41-16.8-75.6,19.9-104.8c19.7-15.7,43.4-23.4,66.3-32.7c64.5-26.5,129-52.6,193.5-78.9
			c59.9-24.4,119.8-48.8,179.6-73.2c65-26.6,129.9-53.3,194.8-79.8c54.5-22.3,109.2-44.3,163.7-66.5c46.5-18.9,92.9-38,139.4-57
			c18.2-7.4,36.4-14.8,54.7-22.3C1449.2,145,1449.8,145.6,1450.4,146.1z"/>
		<path d="M1383.2,321.2c-6.7,13-13,26.3-20.3,38.9c-15.8,27.3-33.6,53.4-61,70.3c-10.2,6.3-22.4,10-34.1,13.3
			c-37.2,10.5-74.7,20.2-112.1,30.2c-29.2,7.8-58.5,15.3-87.7,23.1c-28.9,7.7-57.8,15.8-86.7,23.6c-24.9,6.7-49.9,13.1-74.8,19.7
			c-29.5,7.7-59,15.5-88.6,23.1c-30.5,7.9-61,15.9-91.6,23.5c-9.8,2.5-12.5,5.3-12.9,15.4c-0.1,2-2.6,5.2-4.5,5.7
			c-36.6,9.7-73.3,19.1-110,28.6c-25.7,6.6-51.3,13.5-77.1,19.9c-2.9,0.7-7.5-0.1-9.6-2.1c-6.1-5.7-12.3-11.7-16.7-18.7
			c-6.3-10-2.9-22,7.9-26.6c21.5-9.1,43.3-17.6,65.4-25.2c39.8-13.6,79.9-26.3,119.9-39.3c36.2-11.8,72.6-23.4,108.8-35.2
			c49.8-16.2,99.5-32.6,149.2-48.8c36.7-12,73.6-23.6,110.3-35.6c28.5-9.3,56.9-18.8,85.4-28.2c30.7-10.1,61.5-20.1,92.2-30.2
			c40.2-13.2,80.3-26.5,120.5-39.7c8.6-2.8,17.4-5.3,26-8C1381.8,319.7,1382.5,320.5,1383.2,321.2z"/>
		<path d="M527.5,669.3c257.5-65.2,513.1-130,768.7-194.8c0.3,0.8,0.7,1.6,1,2.3c-19.5,40.4-47.2,72.5-89.3,91.4
			c-19.9,8.9-40.9,11.3-61.8,15.5c-28.4,5.7-56.8,11.4-85.1,17.1c-28.4,5.7-56.7,11.6-85.1,17.3c-32.5,6.6-65,13.3-97.6,19.7
			c-19.9,3.9-39.9,7.2-59.8,10.9c-10.9,2-12.6,4.6-12.5,15.6c0,1.9-2.9,5-4.8,5.4c-26.4,4.7-53,9-79.4,13.5
			c-32.7,5.5-65.5,11-98.2,16.6c-14.8,2.5-29.6,5.1-44.3,7.9c-6,1.1-10.5-0.4-15-4.6c-9.8-9.2-20.2-17.8-30.2-26.7
			C532.1,674.8,530.6,672.7,527.5,669.3z"/>
		<path d="M1194.1,613.7c-5.8,8.6-10.9,17.9-17.5,25.8c-26.6,31.9-59.9,53.1-101.3,59.3c-40.4,6-81,10.5-121.5,15.5
			c-8.6,1.1-17.3,1.8-25.9,2.8c-12.7,1.6-16.4,6.4-14.1,19.8c-4.3,0.7-8.6,1.4-12.9,1.9c-33,3.8-66,7.6-99,11.3
			c-31.7,3.6-63.4,7.1-95.1,10.7c-22.8,2.6-45.5,5.3-68.3,7.9c-2.1,0.2-5-0.1-6.4-1.3c-16.5-15-32.8-30.3-49.1-45.5
			c0.1-0.9,0.2-1.8,0.3-2.8c203-36.1,405.9-72.2,608.9-108.4C1192.8,611.8,1193.5,612.7,1194.1,613.7z"/>
		<path d="M1069.7,829.5c-3.2,0-6.5,0-9.7,0c-118.2,0-236.4,0.1-354.7-0.1c-3.2,0-7.2-0.8-9.3-2.9c-15-14-29.7-28.5-44.4-42.8
			c-0.9-0.9-1.3-2.1-2.7-4.3c3-0.8,5.3-1.7,7.7-1.9c22-2.5,44-4.8,66-7.2c25.4-2.7,50.9-5.4,76.3-8.1c21.5-2.3,43-4.9,64.4-7.2
			c22.3-2.4,44.6-4.6,66.9-6.6c3.2-0.3,7,0.4,9.7,1.9c42.1,24.6,84,49.4,126,74.1c1.4,0.9,2.7,2,4,3.1
			C1069.9,828.2,1069.8,828.9,1069.7,829.5z"/>
		<path d="M637.5,857.6c0.3,2.2,0.6,3.7,0.7,5.2c0.6,16.5,0.6,16.7-15.5,17.3c-5.4,0.2-7.5,2.3-7.5,7.6c0.2,18.5,0.2,36.9,0,55.4
			c-0.1,6.1,2.3,8.9,8.3,8.5c17-1.1,14.8-1.1,14.5,18.1c0,1.9-3.5,5.4-5.5,5.4c-27.7,0.3-55.4,0.2-83.1,0.2c-4.4,0-6.4-1.8-5.8-6.2
			c0.1-0.5,0-1.1,0-1.6c-0.2-15.7-0.2-15.9,15.4-16c6.2,0,8.9-2,8-8.3c-0.3-1.8-0.2-3.7,0-5.5c1-6.9-1.6-9.2-8.7-9
			c-17.9,0.5-35.9,0.5-53.8,0.1c-6.8-0.1-9.1,2.4-8.3,8.7c0.1,0.5,0,1.1,0,1.6c-0.1,12.3-0.1,12.3,11.9,12.4c1.3,0,2.7,0.1,4,0
			c6.4-0.7,8.2,2.4,8.1,8.4c-0.4,17,2,15.4-15.1,15.4c-24,0-48-0.3-72,0.2c-7.2,0.1-9.7-2.2-8.6-9c0.1-0.5,0-1.1,0-1.6
			c0-14.8-1-13.6,13-13.3c7.1,0.2,9-2.4,8.9-9.2c-0.4-18.2-0.2-36.4-0.1-54.6c0-5-1-7.7-6.9-7.9c-15.2-0.4-15.2-0.6-14.9-16
			c0-2.1,0.3-4.1,0.5-6.6c2.4-0.2,4.4-0.5,6.5-0.5c26.9,0,53.8,0.1,80.7-0.2c6.3-0.1,8.8,2.1,8,8.2c-0.1,0.5,0,1.1,0,1.6
			c0,13.5,0,13.3-13.1,13.7c-3.4,0.1-9.5,1.2-9.7,2.5c-1,6.4-0.5,13,0,19.5c0.1,0.7,3.6,1.6,5.6,1.6c19.3,0.1,38.5,0,57.8,0.1
			c4.6,0,7.1-1.4,6.4-6.4c-0.1-0.8,0-1.6,0-2.4c-0.2-15.8,2.5-15.3-14.7-14.9c-7.5,0.2-10.1-2.4-9.3-9.6c0.4-4.1,0.1-8.3,0.1-13.2
			C574.9,857.6,606.1,857.6,637.5,857.6z"/>
		<path d="M1030.4,975.3c-24.3,0-47.5,0.1-70.7-0.2c-2.2,0-4.8-2.8-6.5-5c-18.3-23.2-36.4-46.4-54.6-69.7c-1.7-2.2-3.7-4.2-7.5-5.7
			c0,7.7,0,15.5,0,23.2c0,8.7,0.3,17.4-0.2,26.1c-0.3,5.7,2,7.8,7.3,7.4c0.3,0,0.5,0,0.8,0c17.1,0.6,18.5,2.1,15.9,19.2
			c-0.3,1.8-3.1,4.4-4.8,4.4c-21.6,0.3-43.3,0.3-64.9,0c-1.8,0-3.6-3.2-5.2-5.1c-0.4-0.5-0.1-1.5-0.1-2.3
			c-0.4-15.5-0.5-15.7,15.1-16c5.4-0.1,7.6-1.8,7.5-7.4c-0.2-19-0.3-38-0.1-57c0.1-5.6-2-7.2-7.4-7.3c-16.5-0.3-16.7-0.6-14.9-17.6
			c0.2-2,3.5-5.3,5.4-5.3c28-0.3,55.9-0.4,83.9,0.1c3,0,6.6,2.9,8.7,5.5c19.2,24.1,38.1,48.5,57.1,72.8c0.9,1.2,2,2.2,4.2,4.6
			c0.7-3.1,1.5-4.9,1.5-6.7c0.1-15-0.1-30.1,0.2-45.1c0.1-5.9-2.1-8.3-7.9-7.9c-0.3,0-0.5,0-0.8,0c-16.5-0.6-18.2-2.5-15.4-19
			c0.3-1.7,3.2-4.3,4.9-4.3c22.4-0.3,44.9-0.3,67.3,0.1c1.8,0,3.6,3.2,5.2,5c0.3,0.3,0,1,0.1,1.5c0.6,16.6,0.6,17-15.7,16.6
			c-7.5-0.2-8.7,2.8-8.6,9.2c0.3,25.6,0.1,51.2,0.1,76.8C1030.4,968.9,1030.4,971.4,1030.4,975.3z"/>
		<path d="M736.3,981.2c-18.3,0.5-36.1-2.2-53.4-8.6c-26.2-9.6-40-31.3-39.9-57.5c0.1-24.9,14.3-44.8,40.7-54.4
			c35.7-13,72.1-13.3,107.7-0.7c41.4,14.7,47.7,55.2,34.1,82.1c-8.7,17.2-23.6,27.8-41.8,32.6c-15.4,4.1-31.4,5.8-47.1,8.6
			C736.6,982.5,736.4,981.8,736.3,981.2z M736.2,956.2c24.5-1.6,40.4-15.7,41.6-39.1c1.1-21.5-17.7-39.7-39.7-39.7
			c-22.3,0-39.9,17.6-39.7,39.6C698.6,937.9,716.2,956.2,736.2,956.2z"/>
		<path d="M1139.1,975.4c-20.6,0-41.2-0.2-61.7,0.1c-6.4,0.1-9.5-2-8.7-8.6c0.1-1,0-2.1,0-3.2c-0.1-12-0.1-12,12.3-12.1
			c11.3-0.1,11.2-0.1,11.2-11.5c-0.1-16.9-0.3-33.8,0.1-50.6c0.2-6.7-1.5-9.5-8.8-9.4c-14.8,0.3-17.9-3.9-14.6-19
			c0.3-1.6,2.3-3.3,3.9-3.9c1.9-0.7,4.2-0.3,6.3-0.3c38.8,0,77.6-0.3,116.3,0.2c15.1,0.2,29.9,3.4,42.4,12.7
			c18.8,13.9,23.5,33.9,21.8,55.5c-2.9,36.6-23.9,46.4-56.4,49.3c-21.2,1.9-42.7,0.3-64.1,0.3
			C1139.1,975.1,1139.1,975.3,1139.1,975.4z M1139.8,916.3C1139.8,916.3,1139.9,916.3,1139.8,916.3c0.1,8.7,0.6,17.4-0.1,26.1
			c-0.6,7.7,2.9,9.7,9.7,9.2c9.5-0.7,19-0.9,28.4-1.7c28.1-2.3,39.2-19.6,31-48.3c-2.5-8.5-8.6-15.5-17.4-16.7
			c-15.5-2.1-31.2-2.7-46.9-3.3c-1.5-0.1-4.4,3.4-4.5,5.4C1139.6,896.8,1139.8,906.6,1139.8,916.3z"/>
		<path d="M1395.1,951.6c-3.3-11.7-6.1-13.9-16-14c-15,0-30.1,0.5-45.1-0.2c-9.5-0.5-12,5-14.8,14.1c5.5,0,10.1,0.1,14.6,0
			c4.9-0.2,7.2,1.7,7.1,6.9c-0.3,20.2,1.5,16.8-16,16.9c-18.2,0.2-36.4-0.2-54.6,0.2c-6.9,0.1-9.9-1.5-9.5-9.3
			c0.6-14.9-2.4-15.1,15.2-14.5c7,0.2,11-2,14.3-8.3c9.7-18.7,20.1-37,30.1-55.4c1-1.9,1.8-4,3.4-7.7c-7.3,0-12.9-0.1-18.6,0
			c-4.9,0.1-7.2-1.8-7.1-7c0.3-19.9-1.7-16.1,15.6-16.3c25.3-0.2,50.6,0.1,75.9-0.2c5.5-0.1,8.4,1.7,11.2,6.5
			c16.3,27.7,33.1,55,49.6,82.6c2.9,4.8,6.6,5.9,11.8,5.8c15.8-0.1,18.9,3.9,15.2,19.6c-0.4,1.7-3.5,3.9-5.3,3.9
			c-30.6,0.2-61.2,0.2-91.8,0c-1.8,0-4.9-2-5-3.3c-0.6-5.5-0.6-11.1,0.1-16.5c0.2-1.5,3.6-3.4,5.7-3.6
			C1385.4,951.2,1389.9,951.6,1395.1,951.6z M1340.6,911.5c12.7,0,23.4,0,36,0c-6.1-9.4-11.1-17.4-16.6-25c-0.6-0.9-5.2-0.6-5.8,0.4
			C1349.6,894.5,1345.5,902.4,1340.6,911.5z"/>
		<path class="st1" d="M736.2,956.2c-19.9,0-37.6-18.2-37.8-39.2c-0.3-21.9,17.4-39.5,39.7-39.6c22,0,40.8,18.1,39.7,39.7
			C776.5,940.4,760.7,954.5,736.2,956.2z"/>
		<path class="st1" d="M1139.8,916.3c0-9.8-0.3-19.5,0.2-29.3c0.1-1.9,3-5.5,4.5-5.4c15.7,0.7,31.4,1.2,46.9,3.3
			c8.8,1.2,15,8.2,17.4,16.7c8.3,28.7-2.8,46-31,48.3c-9.5,0.8-18.9,1-28.4,1.7c-6.8,0.5-10.3-1.5-9.7-9.2
			C1140.4,933.8,1139.9,925,1139.8,916.3C1139.9,916.3,1139.8,916.3,1139.8,916.3z"/>
		<path class="st1" d="M1340.6,911.5c4.9-9.1,9-17,13.6-24.6c0.6-1,5.2-1.3,5.8-0.4c5.5,7.6,10.4,15.6,16.6,25
			C1364,911.5,1353.3,911.5,1340.6,911.5z"/>
	</g>
</g>
</svg>
